<svg width="243" height="243" viewBox="0 0 243 243" fill="none" xmlns="http://www.w3.org/2000/svg">
<path d="M99.5285 83.4662L121.516 61.5115L143.24 83.2358L156.472 69.9708L121.516 35.0144L86.2964 70.2341L99.5285 83.4662Z" fill="#004DF2"/>
<path d="M172.799 156.703L207.986 121.516L173.029 86.5267L159.797 99.7917L181.489 121.516L159.534 143.471L172.799 156.703Z" fill="#004DF2"/>
<path d="M142.977 160.028L121.516 181.488L99.7919 159.764L86.5598 173.029L121.516 207.986L156.209 173.26L142.977 160.028Z" fill="#004DF2"/>
<path d="M83.2357 143.208L61.5114 121.516L82.9724 100.023L69.7403 86.7905L35.0144 121.516L70.0036 156.473L83.2357 143.208Z" fill="#004DF2"/>
<path d="M104.137 101.306H124.314C135.473 101.306 144.491 110.358 144.491 121.483C144.491 132.641 135.44 141.66 124.314 141.66H104.137V101.273V101.306Z" fill="#004DF2"/>
</svg>
